<?xml version="1.0" standalone="no"?>
<!DOCTYPE svg PUBLIC "-//W3C//DTD SVG 20010904//EN"
 "http://www.w3.org/TR/2001/REC-SVG-20010904/DTD/svg10.dtd">
<svg version="1.0" xmlns="http://www.w3.org/2000/svg"
 width="204.000000pt" height="246.000000pt" viewBox="0 0 204.000000 246.000000"
 preserveAspectRatio="xMidYMid meet">

<g transform="translate(0.000000,246.000000) scale(0.100000,-0.100000)"
fill="#000000" stroke="none">
<path d="M1850 2448 c-31 -5 -444 -7 -944 -6 l-889 3 -10 -28 c-5 -15 -6 -43
-3 -61 l6 -33 88 -7 c153 -12 200 -40 230 -136 16 -50 17 -133 17 -945 0 -834
-1 -894 -18 -949 -33 -106 -95 -146 -228 -146 -37 0 -70 -5 -77 -12 -16 -16
-16 -90 0 -106 9 -9 158 -12 610 -12 580 0 598 1 608 19 14 28 12 63 -6 89
-13 19 -24 22 -83 22 -136 0 -219 47 -257 147 -16 43 -18 90 -22 451 l-3 404
233 -5 c259 -5 286 -10 350 -67 34 -30 43 -47 58 -105 16 -65 20 -70 51 -78
18 -5 52 -6 74 -3 l41 7 0 334 c-1 375 6 345 -76 345 -61 0 -80 -10 -80 -39 0
-56 -30 -129 -65 -160 -54 -47 -90 -53 -348 -58 l-238 -5 3 428 c3 429 3 429
26 466 13 21 38 48 55 60 30 22 43 23 231 26 220 4 304 -6 382 -44 94 -45 169
-152 224 -318 l23 -69 61 6 c93 9 99 13 92 61 -3 23 -13 147 -21 276 -17 242
-19 261 -32 259 -4 -1 -33 -6 -63 -11z"/>
</g>
</svg>
